# xmcd
#
# Track frame offsets: 
#        150
#        11925
#        22422
#        35467
#        48240
#        58720
#        68472
#        78472
#        89890
#        101277
#        110915
#        121697
#        131175
#        139642
#        151675
#        161927
#        172745
#        184455
#        194230
#        206665
#        219100
#        228867
#        237880
#        246845
#        258172
#        269555
#        278700
#        288760
#
# Disc length: 3979 seconds
#
# Revision: 0
# Processed by: cddbd v1.5.1PL0 Copyright (c) Steve Scherf et al.
# Submitted via: ExactAudioCopy v0.95a4
#
DISCID=9a0f891c
DTITLE=Various Artist - The Sarg Records Anthology - Disc 3
DYEAR=1900
DGENRE=Country
TTITLE0=Al Parsons and The Country Store Boys - I Got You Where I Want Y
TTITLE0=ou
TTITLE1=Al Parsons and The Country Store Boys - You've Done Her Wrong
TTITLE2=Rick Johnson and The Music Makers - My Pretty Cherie
TTITLE3=Rick Johnson and The Music Makers - Let's Live For The Future
TTITLE4=Chet McIntyre - I'm Gonna Rock With My Baby Tonight
TTITLE5=Jeff Stone - Everybody Rock
TTITLE6=Jeff Stone - The Clown
TTITLE7=Cecil Moore - Walkin' Fever
TTITLE8=Cecil Moore - (I Lost My) Little Baby
TTITLE9=Dick Fagan and The Scores - I Got A Ticket (demo)
TTITLE10=Al Urban - Gonna Be Better Times
TTITLE11=Al Urban - Won't Tell You Her Name
TTITLE12=Glenn Bland and The Rhythm Kings - When My Baby Passes By
TTITLE13=Glenn Bland and The Rhythm Kings - Mean Gene
TTITLE14=Pee Wee Maples - Now, How You Gonna Act
TTITLE15=Dick Fagan - This Lonesome Road
TTITLE16=Adolph Hofner and The Pearl Wrangers - Pistol Packin' Mama
TTITLE17=Cecil Moore and The Kings Of Rhythm - Moonshine
TTITLE18=The Moods - Little Alice
TTITLE19=The Downbeats - Darling Of Mine
TTITLE20=The Downbeats - Come On Over (Baby)
TTITLE21=The Sounds - Charlie Chan
TTITLE22=The Sounds - Tell Me, Baby
TTITLE23=Adolph Hofner and The Pearl Wrangers - Bandera Waltz
TTITLE24=Adolph Hofner and The Pearl Wrangers - Julida Polka
TTITLE25=Al Urban - Street Of Memories
TTITLE26=Al Urban - The Last Heartache
TTITLE27=Jimmy Dry - I'm Just A Stand-In
EXTD=
EXTT0=
EXTT1=
EXTT2=
EXTT3=
EXTT4=
EXTT5=
EXTT6=
EXTT7=
EXTT8=
EXTT9=
EXTT10=
EXTT11=
EXTT12=
EXTT13=
EXTT14=
EXTT15=
EXTT16=
EXTT17=
EXTT18=
EXTT19=
EXTT20=
EXTT21=
EXTT22=
EXTT23=
EXTT24=
EXTT25=
EXTT26=
EXTT27=
PLAYORDER=
